# xmcd CD database file
#
# Track frame offsets:
#	165
#	16211
#	35681
#	56250
#	76409
#	94601
#	117231
#	132188
#	153925
#	171527
#	192397
#	205823
#
# Disc length: 3029 seconds
#
# Revision: 0
# Processed by: cddbd v1.5.2PL0 Copyright (c) Steve Scherf et al.
# Submitted via: CDex 1.51
#
DISCID=990bd30c
DTITLE=Antonella Serà - Oro e blu
DYEAR=2004
DGENRE=Jazz
TTITLE0=Libera
TTITLE1=L'ufficio in riva al mare
TTITLE2=Ma dov'è la verità
TTITLE3=La barca di legno di rosa
TTITLE4=Tu non hai capito niente
TTITLE5=Stelle
TTITLE6=Anni
TTITLE7=Camminando
TTITLE8=Stasera che sera
TTITLE9=Vecchio frac
TTITLE10=Volta la carta
TTITLE11=Oro e blu
EXTD=YEAR: 2004
EXTT0=
EXTT1=
EXTT2=
EXTT3=
EXTT4=
EXTT5=
EXTT6=
EXTT7=
EXTT8=
EXTT9=
EXTT10=
EXTT11=
PLAYORDER=
